<svg width="65" height="65" viewBox="0 0 65 65" fill="none" xmlns="http://www.w3.org/2000/svg">
<path d="M35.1336 8.5H21.2524C13.4142 8.5 8.5 14.0498 8.5 21.9037V43.0963C8.5 50.9501 13.3908 56.5 21.2524 56.5H43.7424C51.6067 56.5 56.5 50.9501 56.5 43.0963V29.6875" stroke="#D0D5DD" strokeWidth="4" strokeLinecap="round" strokeLinejoin="round"/>
<path fill-rule="evenodd" clip-rule="evenodd" d="M19.1176 43.4917L26.2917 31.8421C27.0052 30.6823 28.671 30.6279 29.4598 31.7357L33.9432 38.0327C34.6592 39.0421 36.1355 39.1069 36.9374 38.1626L38.5486 36.2762C39.3867 35.293 40.9408 35.4149 41.6179 36.5175L45.8862 43.4943C46.6619 44.7631 45.7512 46.3901 44.2643 46.3901H20.7366C19.2499 46.3901 18.3366 44.7581 19.1176 43.4917Z" stroke="#D0D5DD" strokeWidth="4" strokeLinecap="round" strokeLinejoin="round"/>
<path d="M49.1367 8.57275V21.5457" stroke="#D0D5DD" strokeWidth="4" strokeLinecap="round" strokeLinejoin="round"/>
<path d="M55.6293 15.0566H42.6562" stroke="#D0D5DD" strokeWidth="4" strokeLinecap="round" strokeLinejoin="round"/>
</svg>
